<svg width="156" height="44" viewBox="0 0 156 44" version="1.1" xmlns="http://www.w3.org/2000/svg" xmlns:xlink="http://www.w3.org/1999/xlink">
    <title>OCB Logo - Wht</title>
    <defs>
        <polygon id="path-1" points="0.000162924282 0 155.811008 0 155.811008 43.812431 0.000162924282 43.812431"/>
    </defs>
    <g id="OCB---Batch-1" stroke="none" stroke-width="1" fill="none" fill-rule="evenodd">
        <g id="D_OCB---Age-Gate" transform="translate(-642.000000, -55.000000)">
            <g id="OCB-Logo" transform="translate(642.000000, 55.000000)">
                <mask id="mask-2" fill="white">
                    <use xlink:href="#path-1"/>
                </mask>
                <g id="Clip-2"/>
                <path d="M152.38528,39.4847915 L152.955923,39.4847915 C153.228821,39.4847915 153.414962,39.4444274 153.514346,39.3636991 C153.614137,39.2829709 153.663829,39.1764096 153.663829,39.0436116 C153.663829,38.9580397 153.639797,38.8813478 153.591735,38.8139397 C153.544079,38.746128 153.477688,38.6960765 153.39256,38.6625743 C153.307839,38.6294757 153.15021,38.6129264 152.920079,38.6129264 L152.38528,38.6129264 L152.38528,39.4847915 Z M151.914837,41.111062 L151.914837,38.2213944 L152.916821,38.2213944 C153.259369,38.2213944 153.507014,38.2480347 153.660163,38.3013154 C153.813312,38.3549996 153.935505,38.4482408 154.026335,38.5810387 C154.117166,38.7138367 154.162784,38.8547075 154.162784,39.0044584 C154.162784,39.2155628 154.087025,39.3996232 153.935098,39.5558323 C153.782763,39.7124451 153.581145,39.8004389 153.329427,39.8194101 C153.432476,39.862196 153.51516,39.9130548 153.577479,39.9723901 C153.694784,40.0862169 153.838158,40.2771392 154.008414,40.545157 L154.363589,41.111062 L153.78928,41.111062 L153.531045,40.6557547 C153.32739,40.2973213 153.163244,40.0733004 153.038607,39.9828848 C152.952664,39.9166876 152.826805,39.8831854 152.661844,39.8831854 L152.38528,39.8831854 L152.38528,41.111062 L151.914837,41.111062 Z M153.103369,37.3850497 C152.722534,37.3850497 152.352288,37.4819236 151.991818,37.6752678 C151.631348,37.868612 151.349897,38.1451062 151.146241,38.5043469 C150.942586,38.8635876 150.841166,39.2381667 150.841166,39.6272768 C150.841166,40.0139651 150.940957,40.3845078 151.140539,40.7393084 C151.340936,41.0941091 151.620351,41.3701997 151.979599,41.5683876 C152.33844,41.7665754 152.713166,41.8654675 153.103369,41.8654675 C153.493573,41.8654675 153.868706,41.7665754 154.227139,41.5683876 C154.586387,41.3701997 154.865395,41.0941091 155.064163,40.7393084 C155.262523,40.3845078 155.362314,40.0139651 155.362314,39.6272768 C155.362314,39.2381667 155.261301,38.8635876 155.058461,38.5043469 C154.856434,38.1451062 154.574575,37.868612 154.212884,37.6752678 C153.851599,37.4819236 153.481354,37.3850497 153.103369,37.3850497 L153.103369,37.3850497 Z M153.103369,36.9402371 C153.558335,36.9402371 154.002711,37.0556785 154.435683,37.2873686 C154.869061,37.518655 155.206722,37.8496408 155.448664,38.280326 C155.690199,38.7110112 155.811171,39.1598603 155.811171,39.6272768 C155.811171,40.0898497 155.691829,40.5346623 155.453959,40.9617148 C155.215683,41.3887672 154.881688,41.7205603 154.451975,41.9562868 C154.022262,42.1924169 153.572591,42.3102801 153.103369,42.3102801 C152.634147,42.3102801 152.184884,42.1924169 151.754763,41.9562868 C151.325051,41.7205603 150.990649,41.3887672 150.75115,40.9617148 C150.511651,40.5346623 150.391902,40.0898497 150.391902,39.6272768 C150.391902,39.1598603 150.51328,38.7110112 150.756445,38.280326 C150.999609,37.8496408 151.337677,37.518655 151.771056,37.2873686 C152.204434,37.0556785 152.648403,36.9402371 153.103369,36.9402371 L153.103369,36.9402371 Z M131.609583,32.2955374 L131.609583,32.2846391 L120.518105,32.2846391 L120.518105,25.6322278 L131.609583,25.6322278 C133.456737,25.6322278 134.956455,27.1483043 134.956455,28.9788173 C134.956455,30.8109449 133.456737,32.2955374 131.609583,32.2955374 L131.609583,32.2955374 Z M120.640299,9.49747654 L129.449207,9.49747654 C131.166022,9.49747654 132.560246,10.9065881 132.560246,12.6095505 C132.560246,14.3121092 131.166022,15.691755 129.449207,15.691755 L129.449207,15.6820676 L120.640299,15.6820676 L120.640299,9.49747654 Z M147.981844,31.0184165 C147.981844,25.3198095 143.900591,20.3203091 138.443442,19.3192788 L138.443442,18.6520598 C141.806199,17.1985477 144.182857,13.3252064 144.182857,9.45670877 C144.182857,4.25054407 139.924424,0.0300712723 134.668894,0.0300712723 L133.609479,-0.00020182062 L106.366502,-0.00020182062 L106.366502,42.6800155 L136.545782,42.6800155 L136.237855,42.6578153 C142.72387,42.6578153 147.981844,37.4464032 147.981844,31.0184165 L147.981844,31.0184165 Z M75.3693431,30.5263778 C70.6103248,30.5263778 66.7514632,26.7026844 66.7514632,21.9869438 C66.7514632,17.2707995 70.6103248,13.4467024 75.3693431,13.4467024 C78.2604345,13.4467024 80.818753,14.8570249 82.3828261,17.0217529 L96.1845493,14.8368428 C93.1973326,6.29417966 85.0046851,0.161254675 75.3693431,0.161254675 C63.2066381,0.161254675 53.3460533,9.93340907 53.3460533,21.9869438 C53.3460533,34.0400748 63.2066381,43.8126328 75.3693431,43.8126328 C85.8547426,43.8126328 94.6290298,36.549916 96.850095,26.824584 L83.9094266,23.1405504 C83.3408209,27.3113753 79.7340846,30.5263778 75.3693431,30.5263778 L75.3693431,30.5263778 Z M22.0234527,30.5263778 C17.2640272,30.5263778 13.4059802,26.7026844 13.4059802,21.9869438 C13.4059802,17.2707995 17.2640272,13.4467024 22.0234527,13.4467024 C26.7828783,13.4467024 30.6409253,17.2707995 30.6409253,21.9869438 C30.6409253,26.7026844 26.7828783,30.5263778 22.0234527,30.5263778 L22.0234527,30.5263778 Z M22.0234527,0.161254675 C9.86034047,0.161254675 0.000162924282,9.93340907 0.000162924282,21.9869438 C0.000162924282,34.0404784 9.86034047,43.8126328 22.0234527,43.8126328 C34.1869723,43.8126328 44.0475572,34.0400748 44.0475572,21.9869438 C44.0475572,9.93340907 34.1869723,0.161254675 22.0234527,0.161254675 L22.0234527,0.161254675 Z" id="Fill-1" fill="#FFFFFF" mask="url(#mask-2)"/>
            </g>
        </g>
    </g>
</svg>